<svg version="1.1" viewBox="0 0 57.2 36.6" xmlns="http://www.w3.org/2000/svg" xmlns:xlink="http://www.w3.org/1999/xlink" id="Layer_1" overflow="hidden"><style>
.MsftOfcThm_Background1_Fill {
 fill:#FFFFFF; 
}
.MsftOfcThm_Background1_lumMod_95_Stroke {
 stroke:#F2F2F2; 
}
</style>
<path d=" M 51.9 8 L 10.5 8 C 9.1 8 8 6.8 8 5.4 L 8 5.4 C 8 4 9.1 2.9 10.5 2.9 L 51.9 2.9 C 53.3 2.9 54.4 4 54.4 5.4 L 54.4 5.4 C 54.4 6.8 53.3 8 51.9 8 Z" class="st0" stroke="#F2F2F2" stroke-width="1" stroke-dasharray="" stroke-dashoffset="1" stroke-opacity="1" fill="#FFFFFF" fill-opacity="1"/><path d=" M 51.9 33.9 L 24.5 33.9 C 23.1 33.9 22 32.8 22 31.4 L 22 31.4 C 22 30 23.1 28.9 24.5 28.9 L 51.8 28.9 C 53.2 28.9 54.3 30 54.3 31.4 L 54.3 31.4 C 54.4 32.8 53.3 33.9 51.9 33.9 Z" class="st0" stroke="#F2F2F2" stroke-width="1" stroke-dasharray="" stroke-dashoffset="1" stroke-opacity="1" fill="#FFFFFF" fill-opacity="1"/><path d=" M 51.9 21 L 4.7 21 C 3.3 21 2.2 19.9 2.2 18.5 L 2.2 18.5 C 2.2 17.1 3.3 16 4.7 16 L 51.8 16 C 53.2 16 54.3 17.1 54.3 18.5 L 54.3 18.5 C 54.4 19.8 53.3 21 51.9 21 Z" class="st0" stroke="#F2F2F2" stroke-width="1" stroke-dasharray="" stroke-dashoffset="1" stroke-opacity="1" fill="#FFFFFF" fill-opacity="1"/></svg>